<?xml version="1.0" encoding="iso-8859-1"?>
<!-- Generator: Adobe Illustrator 19.0.0, SVG Export Plug-In . SVG Version: 6.00 Build 0)  -->
<svg version="1.1" id="Capa_1" xmlns="http://www.w3.org/2000/svg" xmlns:xlink="http://www.w3.org/1999/xlink" x="0px" y="0px"
	 viewBox="0 0 512 512" style="enable-background:new 0 0 512 512;" xml:space="preserve">
<g>
	<g>
		<path d="M223.933,40.081H119.726c-8.556,0-15.516,6.96-15.516,15.516v80.161c-0.001,8.556,6.96,15.516,15.516,15.516h8.015
			c4.142,0,7.5-3.358,7.5-7.5c0-4.142-3.358-7.5-7.5-7.5h-8.015c-0.285,0-0.516-0.231-0.516-0.516V55.597
			c0-0.285,0.231-0.516,0.516-0.516h104.207c4.142,0,7.5-3.358,7.5-7.5C231.433,43.439,228.075,40.081,223.933,40.081z"/>
	</g>
</g>
<g>
	<g>
		<path d="M264.017,40.081h-8.015c-4.142,0-7.5,3.358-7.5,7.5c0,4.142,3.357,7.5,7.499,7.5h8.015c0.285,0,0.516,0.231,0.516,0.516
			v80.161c0,0.285-0.231,0.516-0.516,0.516H159.81c-4.142,0-7.5,3.358-7.5,7.5c0,4.142,3.358,7.5,7.5,7.5h104.207
			c8.556,0,15.516-6.96,15.516-15.516V55.597C279.533,47.041,272.573,40.081,264.017,40.081z"/>
	</g>
</g>
<g>
	<g>
		<path d="M127.742,344.694c-12.976,0-23.532,10.557-23.532,23.532c0,12.975,10.557,23.532,23.532,23.532
			c12.976,0,23.533-10.557,23.533-23.532C151.275,355.251,140.718,344.694,127.742,344.694z M127.742,376.758
			c-4.705,0-8.532-3.828-8.532-8.532c0-4.704,3.828-8.532,8.532-8.532c4.705,0,8.533,3.828,8.533,8.532
			C136.275,372.93,132.447,376.758,127.742,376.758z"/>
	</g>
</g>
<g>
	<g>
		<path d="M191.871,192.387c-35.076,0-63.613,28.537-63.613,63.613s28.537,63.613,63.613,63.613
			c35.076,0,63.613-28.537,63.613-63.613C255.484,220.924,226.947,192.387,191.871,192.387z M191.871,304.613
			c-26.805,0-48.613-21.808-48.613-48.613s21.808-48.613,48.613-48.613c26.805,0,48.613,21.808,48.613,48.613
			S218.676,304.613,191.871,304.613z"/>
	</g>
</g>
<g>
	<g>
		<path d="M127.741,176.355h-16.032c-4.142,0-7.5,3.358-7.5,7.5c0,4.142,3.358,7.5,7.5,7.5h16.032c4.142,0,7.5-3.358,7.5-7.5
			C135.241,179.713,131.883,176.355,127.741,176.355z"/>
	</g>
</g>
<g>
	<g>
		<path d="M264.016,176.355h-16.032c-4.142,0-7.5,3.358-7.5,7.5c0,4.142,3.358,7.5,7.5,7.5h16.032c4.142,0,7.5-3.358,7.5-7.5
			C271.516,179.713,268.158,176.355,264.016,176.355z"/>
	</g>
</g>
<g>
	<g>
		<path d="M217.215,270.737l-40.081-40.081c-2.929-2.929-7.678-2.929-10.606,0c-2.929,2.929-2.929,7.677,0,10.606l40.081,40.081
			c1.464,1.465,3.384,2.197,5.303,2.197c1.919,0,3.839-0.732,5.303-2.197C220.144,278.414,220.144,273.666,217.215,270.737z"/>
	</g>
</g>
<g>
	<g>
		<path d="M432.355,80.161h-0.516V55.597c0-4.142-3.358-7.5-7.5-7.5c-4.142,0-7.5,3.358-7.5,7.5v24.565h-0.516
			c-8.556,0-15.516,6.96-15.516,15.516v104.21c0,10.354,6.724,19.16,16.032,22.3v198.144c0,42.276-34.394,76.669-76.669,76.669
			c-4.228,0-8.373-0.359-12.417-1.021c24.108-16.532,39.957-44.273,39.957-75.649V222.187c9.308-3.139,16.032-11.946,16.032-22.3
			V95.677c0-8.556-6.96-15.516-15.516-15.516h-0.516V55.597c0-4.142-3.358-7.5-7.5-7.5c-4.142,0-7.5,3.358-7.5,7.5v24.565h-0.516
			c-8.556,0-15.516,6.96-15.516,15.516v104.21c0,10.354,6.724,19.16,16.032,22.3v198.144c0,30.832-18.302,57.453-44.605,69.616
			c-22.966-10.621-39.832-32.26-43.739-58.108h23.699c17.396,0,31.548-14.153,31.548-31.549V31.548
			C319.613,14.153,305.46,0,288.064,0H95.677C78.281,0,64.129,14.153,64.129,31.548V400.29c0,17.396,14.152,31.549,31.548,31.549
			h89.414c5.679,45.135,44.3,80.161,90.95,80.161c11.275,0,22.079-2.051,32.064-5.792c9.985,3.74,20.789,5.792,32.065,5.792
			c50.547,0,91.669-41.123,91.669-91.669V222.187c9.308-3.139,16.032-11.946,16.032-22.3V95.677
			C447.871,87.122,440.911,80.161,432.355,80.161z M351.677,199.887V95.677c0-0.285,0.231-0.516,0.516-0.516h16.032
			c0.285,0,0.516,0.231,0.516,0.516v104.21c0,4.705-3.828,8.532-8.532,8.532C355.505,208.419,351.677,204.591,351.677,199.887z
			 M191.871,400.806c-4.705,0-8.532-3.828-8.532-8.532v-24.048c0-4.705,3.828-8.532,8.532-8.532c4.704,0,8.532,3.828,8.532,8.532
			v24.048C200.403,396.979,196.576,400.806,191.871,400.806z M199.371,414.574c9.308-3.139,16.032-11.946,16.032-22.3v-24.048
			c0-12.976-10.557-23.532-23.532-23.532c-12.975,0-23.532,10.557-23.532,23.532v24.048c0,10.354,6.724,19.16,16.032,22.3v2.265
			H95.677c-9.125,0-16.548-7.424-16.548-16.549V31.548C79.129,22.424,86.552,15,95.677,15h192.387
			c9.125,0,16.548,7.424,16.548,16.548V400.29c0,9.125-7.423,16.549-16.548,16.549H263.5v-2.265
			c9.308-3.139,16.032-11.946,16.032-22.3v-24.048c0-12.976-10.557-23.532-23.532-23.532c-12.975,0-23.532,10.557-23.532,23.532
			v24.048c0,10.354,6.724,19.16,16.032,22.3v2.265h-49.129V414.574z M256,400.806c-4.705,0-8.532-3.828-8.532-8.532v-24.048
			c0-4.705,3.828-8.532,8.532-8.532s8.532,3.828,8.532,8.532v24.048C264.532,396.979,260.705,400.806,256,400.806z M276.04,497
			c-38.365,0-70.234-28.326-75.803-65.161h48.984c3.345,26.587,18.122,49.662,39.236,64.141C284.413,496.641,280.268,497,276.04,497
			z M424.339,208.419c-4.704,0-8.532-3.828-8.532-8.532V95.677c0-0.285,0.231-0.516,0.516-0.516h16.032
			c0.285,0,0.516,0.231,0.516,0.516v104.21h0C432.871,204.592,429.043,208.419,424.339,208.419z"/>
	</g>
</g>
<g>
</g>
<g>
</g>
<g>
</g>
<g>
</g>
<g>
</g>
<g>
</g>
<g>
</g>
<g>
</g>
<g>
</g>
<g>
</g>
<g>
</g>
<g>
</g>
<g>
</g>
<g>
</g>
<g>
</g>
</svg>
