<svg id="Layer_1" height="512" viewBox="0 0 512 512" width="512" xmlns="http://www.w3.org/2000/svg" data-name="Layer 1"><path d="m213.333 235.833a35.291 35.291 0 0 0 -47.212-2.51l-.319.258 82.455 82.455.258-.319a35.3 35.3 0 0 0 -2.515-47.217z"/><path d="m105.883 305.838h109.752v28.897h-109.752z" transform="matrix(.707 -.707 .707 .707 -179.391 207.483)"/><path d="m29.443 443.619 12.605 3.361 76.828-76.828-7.983-7.983z"/><path d="m376.158 133.072 15.927-15.926a19.37 19.37 0 1 0 -27.394-27.393l-15.926 15.926a46.024 46.024 0 0 1 27.393 27.393z"/><path d="m315.708 159.367a6.745 6.745 0 0 0 -4.784 1.978l-19.808 19.808a6.766 6.766 0 1 0 9.569 9.568l19.807-19.808a6.762 6.762 0 0 0 -4.784-11.546z"/><path d="m358.414 123.424a36.221 36.221 0 0 0 -51.163 0l-97.446 97.446a45.516 45.516 0 0 1 10.6 7.892l32.671 32.671a45.531 45.531 0 0 1 7.893 10.6l97.447-97.447a36.219 36.219 0 0 0 -.002-51.162zm-30.852 54.56-19.807 19.808a16.765 16.765 0 1 1 -23.709-23.71l19.808-19.808a16.765 16.765 0 1 1 23.708 23.71z"/><path d="m466.313 79.8a50.445 50.445 0 0 0 -71.342 0l7.07 7.071a40.448 40.448 0 0 1 57.2 0l1.49 1.489a40.494 40.494 0 0 1 0 57.2l-175.5 175.5a44.779 44.779 0 0 0 63.326 63.327 5 5 0 1 0 -7.071-7.072 34.778 34.778 0 0 1 -49.184-49.184l175.5-175.5a50.506 50.506 0 0 0 0-71.345z"/></svg>