<svg id="Layer_1" height="512" viewBox="0 0 512 512" width="512" xmlns="http://www.w3.org/2000/svg" data-name="Layer 1"><path d="m431.746 131.245a5 5 0 0 0 -10 0v48h10z"/><path d="m407.746 257.245a19.018 19.018 0 0 0 14 18.31v173.69a23.026 23.026 0 0 1 -23 23h-76a22.99 22.99 0 0 1 -18.96-10h44.96a33.037 33.037 0 0 0 33-33v-173.69a19.017 19.017 0 0 0 14-18.31v-34h-38v34a19.018 19.018 0 0 0 14 18.31v173.69a23.026 23.026 0 0 1 -23 23h-48.8a23.206 23.206 0 0 1 -.2-3v-20h-10v20c0 1.012.053 2.011.143 3h-17.143a23.026 23.026 0 0 1 -23-23h-10a33.038 33.038 0 0 0 33 33h19.674a33.046 33.046 0 0 0 30.326 20h76a33.037 33.037 0 0 0 33-33v-173.69a19.017 19.017 0 0 0 14-18.31v-34h-38z"/><path d="m440.746 184.245h-28a5 5 0 0 0 -5 5v24h38v-24a5 5 0 0 0 -5-5z"/><path d="m395.746 169.245a5 5 0 0 0 -5-5h-28a5 5 0 0 0 -5 5v24h38z"/><path d="m381.746 111.245a5 5 0 0 0 -10 0v48h10z"/><path d="m243.853 257.585a8.447 8.447 0 0 0 -14.42-5.973l-69.319 69.32a8.446 8.446 0 0 0 0 11.945 8.444 8.444 0 0 0 11.945 0l69.32-69.319a8.391 8.391 0 0 0 2.474-5.973z"/><path d="m216.967 249.936a45.313 45.313 0 0 0 -58.529 58.529z"/><path d="m200.746 194.3a18.213 18.213 0 0 0 -15.814 9.215h31.629a18.214 18.214 0 0 0 -15.815-9.215z"/><path d="m160.562 375.245h80.369v17h-80.369z"/><path d="m184.526 334.554a45.313 45.313 0 0 0 58.529-58.53z"/><path d="m335.24 387.735v-322.98a35.04 35.04 0 0 0 -35-35h-198.986a35.039 35.039 0 0 0 -35 35v322.98a35.039 35.039 0 0 0 35 35h198.986a35.04 35.04 0 0 0 35-35zm-250.277-304.76a29.032 29.032 0 0 1 29-29h173.567a29.032 29.032 0 0 1 29 29v125.54a5 5 0 0 1 -5 5h-221.567a5 5 0 0 1 -5-5zm-10.709 205.025a5 5 0 0 1 10 0v7.048a5 5 0 0 1 -10 0zm27 126.735a27.03 27.03 0 0 1 -27-27v-75.068a5 5 0 0 1 10 0v75.068a17.019 17.019 0 0 0 17 17 5 5 0 1 1 0 10zm149.677-17.49a5 5 0 0 1 -5 5h-90.369a5 5 0 0 1 -5-5v-27a5 5 0 0 1 5-5h90.369a5 5 0 0 1 5 5zm-11.075-65.891a55.466 55.466 0 0 1 -63.228 10.676 18.433 18.433 0 0 1 -25.661-25.676 55.311 55.311 0 0 1 73.889-73.888 18.433 18.433 0 0 1 25.67 25.669 55.486 55.486 0 0 1 -10.67 63.219z"/><path d="m200.746 107.962a104.69 104.69 0 0 1 104.161 95.553h1.623v-120.54a19.022 19.022 0 0 0 -19-19h-173.567a19.022 19.022 0 0 0 -19 19v120.54h1.623a104.689 104.689 0 0 1 104.16-95.553z"/><path d="m286.6 181.445-10.536 4.48a5 5 0 1 1 -3.913-9.2l10.535-4.48a4.968 4.968 0 0 1 3.543-.12 94.9 94.9 0 0 0 -16.055-23.725 4.96 4.96 0 0 1 -1.431 3.188l-8.095 8.1a5 5 0 0 1 -7.072-7.071l8.1-8.1a4.96 4.96 0 0 1 3.188-1.431 94.885 94.885 0 0 0 -25.327-16.8 4.96 4.96 0 0 1 -.052 3.552l-4.285 10.62a5 5 0 1 1 -9.274-3.74l4.282-10.617a4.965 4.965 0 0 1 2.433-2.6 94 94 0 0 0 -28.173-5.461 4.963 4.963 0 0 1 1.279 3.312v11.448a5 5 0 0 1 -10 0v-11.446a4.964 4.964 0 0 1 1.28-3.312 93.938 93.938 0 0 0 -29.827 6.075 4.962 4.962 0 0 1 2.478 2.549l4.48 10.535a5 5 0 1 1 -9.2 3.913l-4.48-10.535a4.965 4.965 0 0 1 -.12-3.542 94.913 94.913 0 0 0 -23.721 16.05 4.955 4.955 0 0 1 3.188 1.431l8.1 8.1a5 5 0 0 1 -7.072 7.071l-8.095-8.1a4.96 4.96 0 0 1 -1.431-3.188 94.869 94.869 0 0 0 -16.8 25.327 4.96 4.96 0 0 1 3.552.051l10.617 4.283a5 5 0 1 1 -3.74 9.274l-10.618-4.282a4.968 4.968 0 0 1 -2.6-2.434 93.881 93.881 0 0 0 -5.11 22.895h67.388a28.131 28.131 0 0 1 30.348-18.975l13.763-33.4a5 5 0 1 1 9.245 3.809l-13.444 32.627a28.353 28.353 0 0 1 13.555 15.937h67.388a93.824 93.824 0 0 0 -5.724-24.547 4.966 4.966 0 0 1 -2.547 2.479z"/></svg>